<svg width="430" height="1320" viewBox="0 0 430 1320" fill="none" xmlns="http://www.w3.org/2000/svg">
  <rect width="430" height="1320" rx="36" fill="#F8FAFC"/>
  <rect width="430" height="54" rx="36" fill="#0F172A"/>
  <text x="24" y="92" fill="#1F2937" font-size="24" font-family="Arial, sans-serif" font-weight="700">HX-Meeting H5 适配重点</text>
  <text x="24" y="118" fill="#6B7280" font-size="13" font-family="Arial, sans-serif">手机宽度、安全区、触控热区、键盘弹起和 WebView 适配</text>

  <rect x="48" y="150" width="334" height="720" rx="34" fill="#111827"/>
  <rect x="62" y="164" width="306" height="692" rx="26" fill="#F8FAFC"/>
  <rect x="62" y="164" width="306" height="44" rx="26" fill="#0F172A"/>
  <text x="82" y="191" fill="#FFFFFF" font-size="12" font-family="Arial, sans-serif">9:41</text>
  <text x="180" y="191" fill="#FFFFFF" font-size="12" font-family="Arial, sans-serif">HX H5</text>

  <rect x="78" y="226" width="274" height="96" rx="20" fill="#FFFFFF" stroke="#BFDBFE"/>
  <rect x="78" y="226" width="274" height="96" rx="20" fill="url(#g)" fill-opacity="0.7"/>
  <text x="98" y="260" fill="#1F2937" font-size="20" font-family="Arial, sans-serif" font-weight="700">首页待办首屏</text>
  <text x="98" y="286" fill="#475569" font-size="12" font-family="Arial, sans-serif">待签到 · 转让待确认 · 未读通知</text>
  <rect x="98" y="298" width="112" height="24" rx="12" fill="#FEF3C7"/>
  <text x="116" y="315" fill="#92400E" font-size="11" font-family="Arial, sans-serif" font-weight="700">拇指可达 CTA</text>

  <rect x="78" y="344" width="128" height="80" rx="18" fill="#FFFFFF" stroke="#E5E7EB"/>
  <rect x="224" y="344" width="128" height="80" rx="18" fill="#FFFFFF" stroke="#E5E7EB"/>
  <text x="96" y="376" fill="#1F2937" font-size="15" font-family="Arial, sans-serif" font-weight="700">会议预约</text>
  <text x="242" y="376" fill="#1F2937" font-size="15" font-family="Arial, sans-serif" font-weight="700">扫码签到</text>
  <text x="96" y="398" fill="#6B7280" font-size="11" font-family="Arial, sans-serif">2 列入口</text>
  <text x="242" y="398" fill="#6B7280" font-size="11" font-family="Arial, sans-serif">落地确认</text>

  <rect x="78" y="446" width="274" height="146" rx="20" fill="#FFFFFF" stroke="#BFDBFE"/>
  <text x="98" y="478" fill="#1F2937" font-size="17" font-family="Arial, sans-serif" font-weight="700">RoomCard + TimeSlotChip</text>
  <text x="98" y="502" fill="#6B7280" font-size="12" font-family="Arial, sans-serif">30 分钟粒度，连续选择，最多 2 小时</text>
  <rect x="98" y="520" width="58" height="34" rx="14" fill="#2563EB"/>
  <rect x="164" y="520" width="58" height="34" rx="14" fill="#2563EB"/>
  <rect x="230" y="520" width="58" height="34" rx="14" fill="#EFF6FF"/>
  <rect x="296" y="520" width="42" height="34" rx="14" fill="#F1F5F9"/>
  <text x="112" y="542" fill="#FFFFFF" font-size="11" font-family="Arial, sans-serif" font-weight="700">10:00</text>
  <text x="178" y="542" fill="#FFFFFF" font-size="11" font-family="Arial, sans-serif" font-weight="700">10:30</text>
  <text x="244" y="542" fill="#2563EB" font-size="11" font-family="Arial, sans-serif" font-weight="700">11:00</text>

  <rect x="78" y="614" width="274" height="112" rx="24" fill="#FFFFFF" stroke="#BFDBFE"/>
  <rect x="184" y="626" width="44" height="4" rx="2" fill="#CBD5E1"/>
  <text x="98" y="658" fill="#1F2937" font-size="17" font-family="Arial, sans-serif" font-weight="700">底部抽屉 / 表单</text>
  <text x="98" y="682" fill="#6B7280" font-size="12" font-family="Arial, sans-serif">键盘弹起时字段和按钮可滚动可达</text>
  <rect x="98" y="696" width="234" height="28" rx="14" fill="#2563EB"/>
  <text x="188" y="715" fill="#FFFFFF" font-size="11" font-family="Arial, sans-serif" font-weight="700">提交</text>

  <rect x="62" y="780" width="306" height="76" fill="#FFFFFF" stroke="#E5E7EB"/>
  <text x="88" y="824" fill="#2563EB" font-size="12" font-family="Arial, sans-serif" font-weight="700">首页</text>
  <text x="142" y="824" fill="#64748B" font-size="12" font-family="Arial, sans-serif" font-weight="700">预约</text>
  <text x="196" y="824" fill="#64748B" font-size="12" font-family="Arial, sans-serif" font-weight="700">我的</text>
  <text x="250" y="824" fill="#64748B" font-size="12" font-family="Arial, sans-serif" font-weight="700">核销</text>
  <text x="304" y="824" fill="#64748B" font-size="12" font-family="Arial, sans-serif" font-weight="700">通知</text>
  <text x="82" y="846" fill="#6B7280" font-size="10" font-family="Arial, sans-serif">预留 safe-area-inset-bottom，避免手势区遮挡</text>

  <rect x="18" y="910" width="394" height="104" rx="22" fill="#FFFFFF" stroke="#E5E7EB"/>
  <text x="38" y="948" fill="#1F2937" font-size="18" font-family="Arial, sans-serif" font-weight="700">触控热区</text>
  <text x="38" y="976" fill="#6B7280" font-size="13" font-family="Arial, sans-serif">按钮、导航项、时间段 Chip 不小于 44px；Chip 间距至少 8px。</text>
  <rect x="322" y="940" width="54" height="54" rx="16" fill="#EFF6FF" stroke="#2563EB"/>
  <text x="337" y="972" fill="#2563EB" font-size="12" font-family="Arial, sans-serif" font-weight="700">44+</text>

  <rect x="18" y="1034" width="394" height="104" rx="22" fill="#FFFFFF" stroke="#E5E7EB"/>
  <text x="38" y="1072" fill="#1F2937" font-size="18" font-family="Arial, sans-serif" font-weight="700">WebView 与扫码</text>
  <text x="38" y="1100" fill="#6B7280" font-size="13" font-family="Arial, sans-serif">扫码参数异常需展示结果页；页面内提供返回/关闭，不依赖浏览器后退。</text>

  <rect x="18" y="1158" width="394" height="104" rx="22" fill="#FFF7F7" stroke="#FECACA"/>
  <text x="38" y="1196" fill="#991B1B" font-size="18" font-family="Arial, sans-serif" font-weight="700">PC 设计图已取消</text>
  <text x="38" y="1224" fill="#7F1D1D" font-size="13" font-family="Arial, sans-serif">本阶段仅保留 desktop.svg 取消说明，后续以移动 H5 原型和组件库为准。</text>

  <defs><linearGradient id="g" x1="78" y1="226" x2="352" y2="322" gradientUnits="userSpaceOnUse"><stop stop-color="#EFF6FF"/><stop offset="1" stop-color="#FFFFFF"/></linearGradient></defs>
</svg>
