<svg xmlns="http://www.w3.org/2000/svg" viewBox="0 0 1920 3000" width="1920" height="3000">
  <defs>
    <!-- 色彩定义 -->
    <color id="primary">#1a1a1a</color>
    <color id="accent">#2563eb</color>
    <color id="neutral-900">#171717</color>
    <color id="neutral-700">#404040</color>
    <color id="neutral-500">#737373</color>
    <color id="neutral-300">#d4d4d4</color>
    <color id="neutral-100">#f5f5f5</color>
    <color id="white">#ffffff</color>
    <color id="success">#059669</color>
    <color id="error">#dc2626</color>

    <!-- 阴影定义 -->
    <filter id="shadow-float">
      <feDropShadow dx="0" dy="4" stdDeviation="3" flood-opacity="0.08"/>
    </filter>
    <filter id="shadow-modal">
      <feDropShadow dx="0" dy="8" stdDeviation="6" flood-opacity="0.12"/>
    </filter>

    <!-- 文字样式 -->
    <style>
      .text-h1 { font-family: Inter, -apple-system, sans-serif; font-size: 48px; font-weight: 600; fill: #171717; }
      .text-h2 { font-family: Inter, -apple-system, sans-serif; font-size: 32px; font-weight: 600; fill: #171717; }
      .text-h3 { font-family: Inter, -apple-system, sans-serif; font-size: 24px; font-weight: 500; fill: #171717; }
      .text-h4 { font-family: Inter, -apple-system, sans-serif; font-size: 20px; font-weight: 500; fill: #171717; }
      .text-body { font-family: Inter, -apple-system, sans-serif; font-size: 16px; font-weight: 400; fill: #404040; line-height: 1.75; }
      .text-body-large { font-family: Inter, -apple-system, sans-serif; font-size: 18px; font-weight: 400; fill: #404040; line-height: 1.75; }
      .text-small { font-family: Inter, -apple-system, sans-serif; font-size: 14px; font-weight: 400; fill: #737373; }
      .text-xs { font-family: Inter, -apple-system, sans-serif; font-size: 12px; font-weight: 400; fill: #737373; }
      .text-accent { font-family: Inter, -apple-system, sans-serif; fill: #2563eb; }
      .text-white { font-family: Inter, -apple-system, sans-serif; fill: #ffffff; }
    </style>
  </defs>

  <!-- 背景 -->
  <rect width="1920" height="3000" fill="#ffffff"/>

  <!-- ========== 第 1 部分：首页布局 ========== -->
  <text x="40" y="80" class="text-h2">首页布局 - Home Page</text>
  <line x1="40" y2="100" x2="880" stroke="#d4d4d4" stroke-width="1"/>

  <!-- 导航栏 -->
  <rect x="40" y="120" width="840" height="64" fill="#ffffff" stroke="#d4d4d4" stroke-width="1"/>
  <text x="60" y="160" class="text-h4">博客平台</text>

  <!-- 搜索框 -->
  <rect x="200" y="136" width="300" height="32" rx="4" fill="#f5f5f5" stroke="#d4d4d4" stroke-width="1"/>
  <circle cx="220" cy="152" r="8" fill="none" stroke="#737373" stroke-width="1.5"/>
  <line x1="226" y1="158" x2="230" y2="162" stroke="#737373" stroke-width="1.5"/>
  <text x="240" y="156" class="text-small">搜索文章...</text>

  <!-- 导航链接 -->
  <text x="540" y="156" class="text-body accent">首页</text>
  <text x="600" y="156" class="text-body">创作中心</text>
  <text x="680" y="156" class="text-body">管理后台</text>

  <!-- 用户头像 -->
  <circle cx="820" cy="152" r="20" fill="#f5f5f5" stroke="#d4d4d4" stroke-width="1"/>

  <!-- Hero 区域 -->
  <rect x="40" y="200" width="840" height="200" fill="#ffffff"/>
  <text x="460" y="260" class="text-h1" text-anchor="middle">发现优质内容</text>
  <text x="460" y="320" class="text-body" text-anchor="middle">阅读精彩文章，关注喜欢的作者，分享你的观点</text>

  <!-- Hero 搜索框 -->
  <rect x="260" y="340" width="400" height="48" rx="4" fill="#f5f5f5" stroke="#2563eb" stroke-width="2"/>
  <text x="280" y="368" class="text-body">搜索文章、作者、标签...</text>
  <rect x="580" y="352" width="60" height="32" rx="4" fill="#2563eb"/>
  <text x="610" y="370" class="text-small text-white" text-anchor="middle">搜索</text>

  <!-- 热门标签区域 -->
  <text x="40" y="430" class="text-h4">热门标签</text>
  <rect x="40" y="460" width="80" height="28" rx="2" fill="#f5f5f5" stroke="#d4d4d4" stroke-width="1"/>
  <text x="80" y="480" class="text-xs" text-anchor="middle">技术</text>

  <rect x="140" y="460" width="80" height="28" rx="2" fill="#f5f5f5" stroke="#d4d4d4" stroke-width="1"/>
  <text x="180" y="480" class="text-xs" text-anchor="middle">前端</text>

  <rect x="240" y="460" width="80" height="28" rx="2" fill="#f5f5f5" stroke="#d4d4d4" stroke-width="1"/>
  <text x="280" y="480" class="text-xs" text-anchor="middle">生活</text>

  <rect x="340" y="460" width="80" height="28" rx="2" fill="#f5f5f5" stroke="#d4d4d4" stroke-width="1"/>
  <text x="380" y="480" class="text-xs" text-anchor="middle">美食</text>

  <rect x="440" y="460" width="80" height="28" rx="2" fill="#f5f5f5" stroke="#d4d4d4" stroke-width="1"/>
  <text x="480" y="480" class="text-xs" text-anchor="middle">Vue</text>

  <!-- 文章列表区域 -->
  <text x="40" y="530" class="text-h4">最新文章</text>

  <!-- 文章卡片 1 -->
  <rect x="40" y="560" width="420" height="280" rx="4" fill="#f5f5f5" stroke="#d4d4d4" stroke-width="1"/>
  <text x="64" y="600" class="text-h3">Vue 3 组合式 API 入门指南</text>
  <text x="64" y="640" class="text-body">Vue 3 引入了组合式 API，让代码组织更加灵活...</text>

  <!-- 作者信息 -->
  <circle cx="64" cy="800" r="16" fill="#f5f5f5" stroke="#d4d4d4" stroke-width="1"/>
  <text x="88" y="804" class="text-small">技术小达人</text>
  <text x="180" y="804" class="text-xs">2026-04-20</text>
  <text x="280" y="804" class="text-xs">阅读数: 150</text>

  <!-- 标签 -->
  <rect x="64" y="820" width="60" height="24" rx="2" fill="#f5f5f5" stroke="#d4d4d4" stroke-width="1"/>
  <text x="94" y="838" class="text-xs" text-anchor="middle">技术</text>
  <rect x="140" y="820" width="60" height="24" rx="2" fill="#f5f5f5" stroke="#d4d4d4" stroke-width="1"/>
  <text x="170" y="838" class="text-xs" text-anchor="middle">Vue</text>

  <!-- 文章卡片 2 -->
  <rect x="480" y="560" width="420" height="280" rx="4" fill="#f5f5f5" stroke="#2563eb" stroke-width="2"/>
  <text x="504" y="600" class="text-h3 accent">10 分钟学会做完美早餐</text>
  <text x="504" y="640" class="text-body">早餐是一天中最重要的一餐...</text>

  <!-- 作者信息 -->
  <circle cx="504" cy="800" r="16" fill="#f5f5f5" stroke="#d4d4d4" stroke-width="1"/>
  <text x="528" y="804" class="text-small">生活美学家</text>
  <text x="620" y="804" class="text-xs">2026-04-21</text>
  <text x="720" y="804" class="text-xs">阅读数: 230</text>

  <!-- 标签 -->
  <rect x="504" y="820" width="60" height="24" rx="2" fill="#f5f5f5" stroke="#d4d4d4" stroke-width="1"/>
  <text x="534" y="838" class="text-xs" text-anchor="middle">生活</text>
  <rect x="580" y="820" width="60" height="24" rx="2" fill="#f5f5f5" stroke="#d4d4d4" stroke-width="1"/>
  <text x="610" y="838" class="text-xs" text-anchor="middle">美食</text>

  <!-- Hover 状态指示 -->
  <text x="504" y="560" class="text-xs" fill="#2563eb">Hover 状态</text>

  <!-- ========== 第 2 部分：文章详情页 ========== -->
  <g transform="translate(960, 0)">
    <text x="40" y="80" class="text-h2">文章详情页 - Article Detail</text>
    <line x1="40" y1="100" x2="880" stroke="#d4d4d4" stroke-width="1"/>

    <!-- 导航栏 -->
    <rect x="40" y="120" width="840" height="64" fill="#ffffff" stroke="#d4d4d4" stroke-width="1"/>
    <path d="M60,152 L70,152 L70,142 L80,152 L70,162 L70,152" fill="none" stroke="#2563eb" stroke-width="2"/>
    <text x="90" y="156" class="text-body accent">返回</text>
    <text x="820" y="156" class="text-body">技术小达人</text>

    <!-- 文章标题 -->
    <text x="40" y="220" class="text-h2">Vue 3 组合式 API 入门指南</text>

    <!-- 文章元信息 -->
    <circle cx="40" cy="280" r="24" fill="#f5f5f5" stroke="#d4d4d4" stroke-width="1"/>
    <text x="80" y="284" class="text-body">技术小达人</text>
    <text x="180" y="284" class="text-small">2026-04-20</text>
    <text x="280" y="284" class="text-small">阅读数: 150</text>

    <!-- 标签 -->
    <rect x="40" y="310" width="60" height="24" rx="2" fill="#f5f5f5" stroke="#d4d4d4" stroke-width="1"/>
    <text x="70" y="328" class="text-xs" text-anchor="middle">技术</text>
    <rect x="116" y="310" width="60" height="24" rx="2" fill="#f5f5f5" stroke="#d4d4d4" stroke-width="1"/>
    <text x="146" y="328" class="text-xs" text-anchor="middle">Vue</text>

    <!-- 关注按钮 -->
    <rect x="760" y="260" width="100" height="40" rx="4" fill="#2563eb"/>
    <text x="810" y="284" class="text-small text-white" text-anchor="middle">关注作者</text>

    <!-- 文章正文区域 -->
    <rect x="40" y="360" width="720" height="500" fill="#ffffff"/>
    <text x="40" y="400" class="text-body-large">Vue 3 引入了组合式 API，让代码组织更加灵活...</text>

    <text x="40" y="440" class="text-h4">什么是组合式 API</text>
    <text x="40" y="480" class="text-body-large">组合式 API 是一组函数，允许你在 setup() 函数中组织组件逻辑...</text>

    <!-- 代码块示例 -->
    <rect x="40" y="540" width="720" height="180" rx="2" fill="#f5f5f5" stroke="#d4d4d4" stroke-width="1"/>
    <text x="60" y="580" class="text-xs" fill="#737373">vue</text>
    <text x="60" y="620" class="text-xs" fill="#404040">&lt;script setup&gt;</text>
    <text x="60" y="640" class="text-xs" fill="#404040">import { ref, computed } from 'vue'</text>
    <text x="60" y="660" class="text-xs" fill="#404040">const count = ref(0)</text>
    <text x="60" y="680" class="text-xs" fill="#404040">const doubled = computed(() => count.value * 2)</text>
    <text x="60" y="700" class="text-xs" fill="#404040">&lt;/script&gt;</text>

    <text x="40" y="750" class="text-body-large">组合式 API 让代码更易维护和复用，推荐在新项目中使用。</text>

    <!-- 评论区 -->
    <text x="40" y="880" class="text-h4">评论区 (3)</text>

    <!-- 评论输入框 -->
    <rect x="40" y="920" width="720" height="48" rx="4" fill="#f5f5f5" stroke="#d4d4d4" stroke-width="1"/>
    <text x="60" y="948" class="text-body">写下你的评论...</text>
    <rect x="660" y="936" width="80" height="28" rx="4" fill="#2563eb"/>
    <text x="700" y="954" class="text-xs text-white" text-anchor="middle">发布</text>

    <!-- 评论 1 -->
    <rect x="40" y="1000" width="720" height="120" rx="4" fill="#f5f5f5" stroke="#d4d4d4" stroke-width="1"/>
    <circle cx="60" cy="1020" r="16" fill="#f5f5f5" stroke="#d4d4d4" stroke-width="1"/>
    <text x="88" y="1024" class="text-small">阅读爱好者</text>
    <text x="200" y="1024" class="text-xs">2026-04-20 12:00</text>
    <text x="60" y="1060" class="text-body">非常实用的 Vue 3 入门教程，感谢分享！</text>

    <!-- 回复按钮 -->
    <text x="60" y="1100" class="text-xs accent">回复</text>

    <!-- 评论 2 -->
    <rect x="40" y="1140" width="720" height="120" rx="4" fill="#f5f5f5" stroke="#d4d4d4" stroke-width="1"/>
    <circle cx="60" cy="1160" r="16" fill="#f5f5f5" stroke="#d4d4d4" stroke-width="1"/>
    <text x="88" y="1164" class="text-small">阅读爱好者</text>
    <text x="200" y="1164" class="text-xs">2026-04-20 13:30</text>
    <text x="60" y="1200" class="text-body">请问组合式 API 和选项式 API 有什么区别？</text>
    <text x="60" y="1240" class="text-xs accent">回复</text>

    <!-- 回复评论 -->
    <rect x="80" y="1280" width="680" height="120" rx="4" fill="#ffffff" stroke="#2563eb" stroke-width="1"/>
    <circle cx="100" cy="1300" r="16" fill="#f5f5f5" stroke="#d4d4d4" stroke-width="1"/>
    <text x="128" y="1304" class="text-small accent">技术小达人</text>
    <text x="240" y="1304" class="text-xs">(作者)</text>
    <text x="280" y="1304" class="text-xs">2026-04-20 14:00</text>
    <text x="100" y="1340" class="text-body">组合式 API 更适合复杂组件逻辑复用，选项式 API 更适合简单组件。</text>
    <text x="100" y="1380" class="text-xs accent">回复</text>

    <text x="80" y="1280" class="text-xs" fill="#2563eb">作者回复</text>
  </g>

  <!-- ========== 第 3 部分：用户主页 ========== -->
  <g transform="translate(0, 1600)">
    <text x="40" y="80" class="text-h2">用户主页 - User Profile</text>
    <line x1="40" y1="100" x2="880" stroke="#d4d4d4" stroke-width="1"/>

    <!-- 用户信息区域 -->
    <rect x="40" y="120" width="840" height="200" fill="#ffffff"/>
    <circle cx="120" cy="200" r="64" fill="#f5f5f5" stroke="#d4d4d4" stroke-width="1"/>
    <text x="220" y="160" class="text-h3">技术小达人</text>
    <text x="220" y="200" class="text-body">热爱技术分享的博主，专注前端和 AI 领域</text>

    <!-- 统计数据 -->
    <text x="220" y="240" class="text-h4">文章数: 25</text>
    <text x="340" y="240" class="text-h4">粉丝数: 128</text>
    <text x="460" y="240" class="text-h4">关注数: 15</text>

    <!-- 关注按钮（已关注状态） -->
    <rect x="760" y="140" width="100" height="40" rx="4" fill="#f5f5f5" stroke="#d4d4d4" stroke-width="1"/>
    <text x="810" y="164" class="text-small" text-anchor="middle">已关注</text>

    <text x="760" y="140" class="text-xs" fill="#059669">已关注状态</text>

    <!-- 文章列表 -->
    <text x="40" y="360" class="text-h4">技术小达人的文章 (25)</text>

    <!-- 文章卡片 -->
    <rect x="40" y="400" width="840" height="160" rx="4" fill="#f5f5f5" stroke="#d4d4d4" stroke-width="1"/>
    <text x="64" y="440" class="text-h3">Vue 3 组合式 API 入门指南</text>
    <text x="64" y="480" class="text-body">Vue 3 引入了组合式 API，让代码组织更加灵活...</text>
    <text x="64" y="520" class="text-xs">2026-04-20 · 阅读: 150</text>

    <rect x="40" y="580" width="840" height="160" rx="4" fill="#f5f5f5" stroke="#d4d4d4" stroke-width="1"/>
    <text x="64" y="620" class="text-h3">前端性能优化实战</text>
    <text x="64" y="660" class="text-body">前端性能直接影响用户体验...</text>
    <text x="64" y="700" class="text-xs">2026-04-25 · 待审核</text>

    <!-- 待审核状态标签 -->
    <rect x="64" y="720" width="80" height="24" rx="2" fill="#d97706"/>
    <text x="104" y="738" class="text-xs text-white" text-anchor="middle">待审核</text>
  </g>

  <!-- ========== 第 4 部分：创作中心 ========== -->
  <g transform="translate(960, 1600)">
    <text x="40" y="80" class="text-h2">创作中心 - Creation Center</text>
    <line x1="40" y1="100" x2="880" stroke="#d4d4d4" stroke-width="1"/>

    <!-- 标题和发布按钮 -->
    <text x="40" y="140" class="text-h3">我的文章</text>
    <rect x="760" y="120" width="120" height="48" rx="4" fill="#2563eb"/>
    <text x="820" y="148" class="text-small text-white" text-anchor="middle">发布新文章</text>

    <!-- 状态筛选 -->
    <rect x="40" y="180" width="100" height="32" rx="4" fill="#2563eb"/>
    <text x="90" y="200" class="text-small text-white" text-anchor="middle">全部</text>

    <rect x="160" y="180" width="100" height="32" rx="4" fill="#f5f5f5" stroke="#d4d4d4" stroke-width="1"/>
    <text x="210" y="200" class="text-small" text-anchor="middle">已发布</text>

    <rect x="280" y="180" width="100" height="32" rx="4" fill="#f5f5f5" stroke="#d4d4d4" stroke-width="1"/>
    <text x="330" y="200" class="text-small" text-anchor="middle">草稿</text>

    <rect x="400" y="180" width="100" height="32" rx="4" fill="#f5f5f5" stroke="#d4d4d4" stroke-width="1"/>
    <text x="450" y="200" class="text-small" text-anchor="middle">待审核</text>

    <!-- 文章管理卡片 -->
    <rect x="40" y="240" width="840" height="180" rx="4" fill="#f5f5f5" stroke="#d4d4d4" stroke-width="1"/>
    <text x="64" y="280" class="text-h4">Vue 3 组合式 API 入门指南</text>
    <text x="64" y="320" class="text-body">Vue 3 引入了组合式 API...</text>
    <text x="64" y="360" class="text-xs">2026-04-20 · 已发布 · 阅读: 150</text>

    <!-- 状态标签 -->
    <rect x="64" y="380" width="80" height="24" rx="2" fill="#059669"/>
    <text x="104" y="398" class="text-xs text-white" text-anchor="middle">已发布</text>

    <!-- 操作按钮 -->
    <rect x="680" y="360" width="80" height="32" rx="4" fill="#f5f5f5" stroke="#d4d4d4" stroke-width="1"/>
    <text x="720" y="380" class="text-small" text-anchor="middle">编辑</text>

    <rect x="780" y="360" width="80" height="32" rx="4" fill="#f5f5f5" stroke="#dc2626" stroke-width="1"/>
    <text x="820" y="380" class="text-small" fill="#dc2626" text-anchor="middle">删除</text>

    <!-- 草稿文章卡片 -->
    <rect x="40" y="440" width="840" height="180" rx="4" fill="#f5f5f5" stroke="#d4d4d4" stroke-width="1"/>
    <text x="64" y="480" class="text-h4">前端性能优化实战</text>
    <text x="64" y="520" class="text-body">前端性能直接影响用户体验...</text>
    <text x="64" y="560" class="text-xs">2026-04-25 · 草稿 · 未完成</text>

    <!-- 状态标签 -->
    <rect x="64" y="580" width="80" height="24" rx="2" fill="#737373"/>
    <text x="104" y="598" class="text-xs text-white" text-anchor="middle">草稿</text>

    <!-- 继续编辑按钮 -->
    <rect x="680" y="560" width="100" height="32" rx="4" fill="#2563eb"/>
    <text x="730" y="580" class="text-small text-white" text-anchor="middle">继续编辑</text>
  </g>

  <!-- ========== 第 5 部分：组件状态详解 ========== -->
  <g transform="translate(0, 2400)">
    <text x="40" y="80" class="text-h2">组件状态详解 - Component States</text>
    <line x1="40" y1="100" x2="880" stroke="#d4d4d4" stroke-width="1"/>

    <!-- 按钮状态 -->
    <text x="40" y="140" class="text-h4">按钮状态 Button States</text>

    <!-- Primary Button -->
    <rect x="40" y="180" width="160" height="48" rx="4" fill="#2563eb"/>
    <text x="120" y="208" class="text-body text-white" text-anchor="middle">主要按钮</text>
    <text x="40" y="180" class="text-xs">默认</text>

    <rect x="220" y="180" width="160" height="48" rx="4" fill="#1d4ed8"/>
    <text x="300" y="208" class="text-body text-white" text-anchor="middle">主要按钮</text>
    <text x="220" y="180" class="text-xs" fill="#1d4ed8">Hover/Pressed</text>

    <rect x="400" y="180" width="160" height="48" rx="4" fill="#2563eb" opacity="0.5"/>
    <text x="480" y="208" class="text-body text-white" text-anchor="middle">主要按钮</text>
    <text x="400" y="180" class="text-xs" fill="#737373">Disabled</text>

    <!-- Secondary Button -->
    <rect x="40" y="260" width="160" height="40" rx="4" fill="#f5f5f5" stroke="#d4d4d4" stroke-width="1"/>
    <text x="120" y="284" class="text-small" text-anchor="middle">次要按钮</text>

    <rect x="220" y="260" width="160" height="40" rx="4" fill="#ffffff" stroke="#2563eb" stroke-width="1"/>
    <text x="300" y="284" class="text-small accent" text-anchor="middle">次要按钮</text>
    <text x="220" y="260" class="text-xs" fill="#2563eb">Hover</text>

    <!-- Ghost Button -->
    <rect x="40" y="320" width="160" height="32" rx="0" fill="transparent"/>
    <text x="120" y="340" class="text-body accent" text-anchor="middle">文字按钮</text>

    <!-- Danger Button -->
    <rect x="220" y="320" width="160" height="40" rx="4" fill="#dc2626"/>
    <text x="300" y="344" class="text-small text-white" text-anchor="middle">删除</text>

    <!-- 输入框状态 -->
    <text x="40" y="400" class="text-h4">输入框状态 Input States</text>

    <!-- Default -->
    <rect x="40" y="440" width="300" height="48" rx="4" fill="#f5f5f5" stroke="#d4d4d4" stroke-width="1"/>
    <text x="60" y="468" class="text-body">输入框内容</text>
    <text x="40" y="440" class="text-xs">默认</text>

    <!-- Focused -->
    <rect x="360" y="440" width="300" height="48" rx="4" fill="#ffffff" stroke="#2563eb" stroke-width="2"/>
    <text x="380" y="468" class="text-body">输入框内容</text>
    <rect x="380" y="456" width="2" height="32" fill="#2563eb"/>
    <text x="360" y="440" class="text-xs" fill="#2563eb">Focused</text>

    <!-- Error -->
    <rect x="680" y="440" width="300" height="48" rx="4" fill="#ffffff" stroke="#dc2626" stroke-width="2"/>
    <text x="700" y="468" class="text-body">输入框内容</text>
    <text x="700" y="500" class="text-xs" fill="#dc2626">错误：字段不能为空</text>
    <text x="680" y="440" class="text-xs" fill="#dc2626">Error</text>

    <!-- 标签状态 -->
    <text x="40" y="560" class="text-h4">标签状态 Tag States</text>

    <rect x="40" y="600" width="80" height="28" rx="2" fill="#f5f5f5" stroke="#d4d4d4" stroke-width="1"/>
    <text x="80" y="618" class="text-xs" text-anchor="middle">技术</text>

    <rect x="140" y="600" width="80" height="28" rx="2" fill="#f5f5f5" stroke="#2563eb" stroke-width="1"/>
    <text x="180" y="618" class="text-xs accent" text-anchor="middle">Vue</text>
    <text x="140" y="600" class="text-xs" fill="#2563eb">Hover</text>

    <!-- 状态标签 -->
    <rect x="260" y="600" width="100" height="28" rx="2" fill="#059669"/>
    <text x="310" y="618" class="text-xs text-white" text-anchor="middle">已发布</text>

    <rect x="380" y="600" width="100" height="28" rx="2" fill="#737373"/>
    <text x="430" y="618" class="text-xs text-white" text-anchor="middle">草稿</text>

    <rect x="500" y="600" width="100" height="28" rx="2" fill="#d97706"/>
    <text x="550" y="618" class="text-xs text-white" text-anchor="middle">待审核</text>

    <rect x="620" y="600" width="100" height="28" rx="2" fill="#dc2626"/>
    <text x="670" y="618" class="text-xs text-white" text-anchor="middle">已拒绝</text>
  </g>

  <!-- ========== 第 6 部分：响应式布局对比 ========== -->
  <g transform="translate(960, 2400)">
    <text x="40" y="80" class="text-h2">响应式布局 - Responsive Layout</text>
    <line x1="40" y1="100" x2="880" stroke="#d4d4d4" stroke-width="1"/>

    <!-- Mobile (375px) -->
    <text x="40" y="140" class="text-h4">Mobile - 375px</text>
    <rect x="40" y="180" width="375" height="580" rx="4" fill="#ffffff" stroke="#d4d4d4" stroke-width="2"/>

    <!-- Mobile 导航 -->
    <rect x="50" y="190" width="355" height="56" fill="#ffffff" stroke="#d4d4d4" stroke-width="1"/>
    <text x="70" y="220" class="text-small">博客平台</text>
    <circle cx="340" cy="218" r="16" fill="#f5f5f5" stroke="#d4d4d4" stroke-width="1"/>
    <circle cx="380" cy="218" r="8" fill="none" stroke="#737373" stroke-width="1.5"/>

    <!-- Mobile Hero -->
    <text x="225" y="260" class="text-h4" text-anchor="middle">发现优质内容</text>
    <rect x="60" y="290" width="315" height="40" rx="4" fill="#f5f5f5" stroke="#d4d4d4" stroke-width="1"/>

    <!-- Mobile 标签 -->
    <rect x="60" y="350" width="60" height="24" rx="2" fill="#f5f5f5" stroke="#d4d4d4" stroke-width="1"/>
    <text x="90" y="366" class="text-xs" text-anchor="middle">技术</text>

    <!-- Mobile 文章卡片（单列） -->
    <rect x="50" y="400" width="355" height="160" rx="4" fill="#f5f5f5" stroke="#d4d4d4" stroke-width="1"/>
    <text x="70" y="430" class="text-h4">Vue 3 组合式 API 入门指南</text>
    <text x="70" y="470" class="text-small">Vue 3 引入了组合式 API...</text>
    <text x="70" y="530" class="text-xs">2026-04-20</text>

    <rect x="50" y="580" width="355" height="160" rx="4" fill="#f5f5f5" stroke="#d4d4d4" stroke-width="1"/>
    <text x="70" y="610" class="text-h4">10 分钟学会做完美早餐</text>
    <text x="70" y="650" class="text-small">早餐是一天中最重要...</text>

    <!-- Tablet (768px) -->
    <text x="440" y="140" class="text-h4">Tablet - 768px</text>
    <rect x="440" y="180" width="380" height="580" rx="4" fill="#ffffff" stroke="#d4d4d4" stroke-width="2"/>

    <!-- Tablet 导航 -->
    <rect x="450" y="190" width="360" height="56" fill="#ffffff" stroke="#d4d4d4" stroke-width="1"/>
    <text x="470" y="220" class="text-small">博客平台</text>
    <rect x="560" y="206" width="160" height="28" rx="4" fill="#f5f5f5" stroke="#d4d4d4" stroke-width="1"/>
    <circle cx="740" cy="218" r="16" fill="#f5f5f5" stroke="#d4d4d4" stroke-width="1"/>

    <!-- Tablet Hero -->
    <text x="630" y="260" class="text-h4" text-anchor="middle">发现优质内容</text>
    <rect x="500" y="290" width="260" height="40" rx="4" fill="#f5f5f5" stroke="#d4d4d4" stroke-width="1"/>

    <!-- Tablet 标签 -->
    <rect x="500" y="350" width="60" height="24" rx="2" fill="#f5f5f5" stroke="#d4d4d4" stroke-width="1"/>
    <text x="530" y="366" class="text-xs" text-anchor="middle">技术</text>

    <!-- Tablet 文章卡片（双列） -->
    <rect x="450" y="400" width="175" height="160" rx="4" fill="#f5f5f5" stroke="#d4d4d4" stroke-width="1"/>
    <text x="470" y="430" class="text-small">Vue 3 组合式 API...</text>

    <rect x="635" y="400" width="175" height="160" rx="4" fill="#f5f5f5" stroke="#d4d4d4" stroke-width="1"/>
    <text x="655" y="430" class="text-small">10 分钟学会做...</text>

    <!-- Desktop 示例标注 -->
    <text x="40" y="780" class="text-h4">Desktop - ≥1024px</text>
    <text x="40" y="820" class="text-body">三列布局，左侧固定侧边栏（280px），中间文章列表，右侧推荐内容</text>

    <!-- 间距标注 -->
    <text x="40" y="880" class="text-h4">间距系统 - Spacing</text>
    <text x="40" y="920" class="text-small">4px (xs) | 8px (sm) | 16px (md) | 24px (lg) | 32px (xl) | 48px (2xl)</text>
  </g>

  <!-- ========== 设计说明文字 ========== -->
  <g transform="translate(0, 2800)">
    <text x="40" y="80" class="text-h2">设计理念总结</text>
    <line x1="40" y1="100" x2="1880" stroke="#d4d4d4" stroke-width="1"/>

    <text x="40" y="140" class="text-body-large">
      简约现代风格强调：内容优先、大量留白、极简元素、克制用色、现代字体、功能导向。
    </text>

    <text x="40" y="180" class="text-body-large">
      核心设计要点：
    </text>

    <text x="40" y="220" class="text-body">
      • 色彩：深灰品牌色 + 蓝色强调色 + 中性色层级，不超过 4 种主要色彩
    </text>

    <text x="40" y="260" class="text-body">
      • 字体：Inter 无衬线字体，16px 正文，1.75 行高，720px 行宽（桌面）
    </text>

    <text x="40" y="300" class="text-body">
      • 圆角：极小圆角 4px 或无圆角，体现简洁硬朗特征
    </text>

    <text x="40" y="340" class="text-body">
      • 阴影：极简或无阴影，仅在浮层、模态使用功能性阴影
    </text>

    <text x="40" y="380" class="text-body">
      • 间距：8pt 间距系统，一致的间距节奏
    </text>

    <text x="40" y="420" class="text-body">
      • 图标：Lucide Icons 线性图标，1.5px stroke，无装饰，禁用 Emoji
    </text>

    <text x="40" y="460" class="text-body">
      • 可访问性：对比度 ≥ 4.5:1，触摸目标 ≥ 44px，焦点状态清晰
    </text>

    <text x="40" y="500" class="text-body">
      • 深色模式：独立色彩体系，降低对比度，保持品牌色不变
    </text>

    <text x="40" y="540" class="text-body">
      • 动效：功能性优先，150-300ms 时长，ease-out 曲线，支持 reduced-motion
    </text>

    <!-- 关键视觉层级标注 -->
    <rect x="960" y="120" width="920" height="480" rx="4" fill="#f5f5f5" stroke="#d4d4d4" stroke-width="1"/>
    <text x="980" y="160" class="text-h4">视觉层级 Visual Hierarchy</text>

    <text x="980" y="200" class="text-body">
      第一层级：文章标题 (32px, 600 weight) - 最重要信息
    </text>

    <text x="980" y="240" class="text-body">
      第二层级：文章摘要 (16px, 400 weight) - 辅助信息
    </text>

    <text x="980" y="280" class="text-body">
      第三层级：作者信息、时间 (14px, 400 weight) - 元数据
    </text>

    <text x="980" y="320" class="text-body">
      第四层级：标签、计数器 (12px, 400 weight) - 辅助标签
    </text>

    <text x="980" y="360" class="text-body">
      强调层级：交互按钮、链接 (蓝色 Accent)
    </text>

    <text x="980" y="400" class="text-body">
      状态层级：状态标签 (彩色：绿/红/橙/灰)
    </text>

    <text x="980" y="440" class="text-body-large accent">
      核心原则：通过字号、字重、色彩建立清晰层级，而非仅靠颜色区分
    </text>

    <text x="980" y="480" class="text-body">
      反模式：避免使用过多色彩、装饰性阴影、过度圆角、Emoji图标
    </text>
  </g>
</svg>