<svg width="430" height="1320" viewBox="0 0 430 1320" fill="none" xmlns="http://www.w3.org/2000/svg">
  <rect width="430" height="1320" rx="36" fill="#F8FAFC"/>
  <rect width="430" height="54" rx="36" fill="#0F172A"/>
  <text x="24" y="92" fill="#1F2937" font-size="24" font-family="Arial, sans-serif" font-weight="700">HX-Meeting H5 交互流程</text>
  <text x="24" y="118" fill="#6B7280" font-size="13" font-family="Arial, sans-serif">首页、预约、签到、通知、转让确认和管理入口移动流程</text>

  <g font-family="Arial, sans-serif">
    <rect x="92" y="150" width="246" height="72" rx="20" fill="#0F172A"/>
    <text x="176" y="193" fill="#FFFFFF" font-size="20" font-weight="700">H5 登录</text>

    <path d="M215 222V262" stroke="#64748B" stroke-width="3"/><polygon points="215,262 207,248 223,248" fill="#64748B"/>
    <rect x="58" y="262" width="314" height="96" rx="22" fill="#FFFFFF" stroke="#BFDBFE"/>
    <text x="176" y="298" fill="#1F2937" font-size="20" font-weight="700">首页</text>
    <text x="86" y="326" fill="#6B7280" font-size="13">待办优先 / 快捷入口 / 今日会议 / 底部导航</text>

    <path d="M108 358C80 398 70 430 70 470" stroke="#64748B" stroke-width="3" fill="none"/><polygon points="70,470 62,456 78,456" fill="#64748B"/>
    <path d="M215 358V470" stroke="#64748B" stroke-width="3"/><polygon points="215,470 207,456 223,456" fill="#64748B"/>
    <path d="M322 358C350 398 360 430 360 470" stroke="#64748B" stroke-width="3" fill="none"/><polygon points="360,470 352,456 368,456" fill="#64748B"/>

    <rect x="24" y="470" width="132" height="96" rx="20" fill="#FFFFFF" stroke="#E5E7EB"/>
    <text x="56" y="506" fill="#1F2937" font-size="18" font-weight="700">预约</text>
    <text x="42" y="532" fill="#6B7280" font-size="12">日期 + 房间卡</text>
    <text x="42" y="552" fill="#6B7280" font-size="12">30 分钟 Chip</text>

    <rect x="174" y="470" width="132" height="96" rx="20" fill="#FFFFFF" stroke="#FCD34D"/>
    <text x="202" y="506" fill="#1F2937" font-size="18" font-weight="700">扫码签到</text>
    <text x="192" y="532" fill="#6B7280" font-size="12">扫码落地页</text>
    <text x="192" y="552" fill="#6B7280" font-size="12">确认 / 失败</text>

    <rect x="324" y="470" width="82" height="96" rx="20" fill="#FFFFFF" stroke="#E5E7EB"/>
    <text x="338" y="506" fill="#1F2937" font-size="18" font-weight="700">通知</text>
    <text x="338" y="532" fill="#6B7280" font-size="12">待办</text>
    <text x="338" y="552" fill="#6B7280" font-size="12">未读</text>

    <path d="M90 566V626" stroke="#64748B" stroke-width="3"/><polygon points="90,626 82,612 98,612" fill="#64748B"/>
    <rect x="24" y="626" width="184" height="104" rx="20" fill="#FFFFFF" stroke="#BFDBFE"/>
    <text x="54" y="662" fill="#1F2937" font-size="18" font-weight="700">底部预约表单</text>
    <text x="44" y="688" fill="#6B7280" font-size="12">自动带入会议室和区间</text>
    <text x="44" y="708" fill="#DC2626" font-size="12">超 2 小时 / 非连续即时阻止</text>

    <path d="M208 678H250" stroke="#64748B" stroke-width="3"/><polygon points="250,678 236,670 236,686" fill="#64748B"/>
    <rect x="250" y="626" width="156" height="104" rx="20" fill="#FFFFFF" stroke="#86EFAC"/>
    <text x="290" y="662" fill="#1F2937" font-size="18" font-weight="700">预约结果</text>
    <text x="270" y="688" fill="#16A34A" font-size="12">成功：查看我的预约</text>
    <text x="270" y="708" fill="#DC2626" font-size="12">失败：冲突/禁用/规则</text>

    <path d="M240 566V786" stroke="#64748B" stroke-width="3"/><polygon points="240,786 232,772 248,772" fill="#64748B"/>
    <rect x="120" y="786" width="240" height="96" rx="20" fill="#FFFFFF" stroke="#86EFAC"/>
    <text x="196" y="822" fill="#1F2937" font-size="18" font-weight="700">签到结果</text>
    <text x="146" y="848" fill="#16A34A" font-size="12">成功：已签到 / 进行中</text>
    <text x="146" y="868" fill="#DC2626" font-size="12">失败：未到时间 / 房间不匹配</text>

    <path d="M365 566V626" stroke="#64748B" stroke-width="3"/><polygon points="365,626 357,612 373,612" fill="#64748B"/>
    <rect x="250" y="754" width="156" height="98" rx="20" fill="#FFFFFF" stroke="#FCD34D"/>
    <text x="284" y="790" fill="#1F2937" font-size="18" font-weight="700">转让确认</text>
    <text x="270" y="816" fill="#6B7280" font-size="12">责任说明</text>
    <text x="270" y="836" fill="#16A34A" font-size="12">确认 / 拒绝</text>
    <path d="M365 566C386 640 384 708 360 754" stroke="#64748B" stroke-width="3" fill="none"/><polygon points="360,754 357,738 372,744" fill="#64748B"/>

    <rect x="24" y="918" width="172" height="104" rx="20" fill="#FFFFFF" stroke="#E5E7EB"/>
    <text x="70" y="954" fill="#1F2937" font-size="18" font-weight="700">我的预约</text>
    <text x="44" y="980" fill="#6B7280" font-size="12">去签到 / 转让 / 释放</text>
    <text x="44" y="1000" fill="#DC2626" font-size="12">违规释放状态</text>
    <path d="M240 882C210 904 172 918 110 918" stroke="#64748B" stroke-width="3" fill="none"/><polygon points="110,918 124,910 124,926" fill="#64748B"/>

    <rect x="234" y="918" width="172" height="104" rx="20" fill="#F8FBFF" stroke="#93C5FD" stroke-dasharray="6 6"/>
    <text x="260" y="954" fill="#1F2937" font-size="18" font-weight="700">会议室管理</text>
    <text x="254" y="980" fill="#6B7280" font-size="12">管理员首页入口</text>
    <text x="254" y="1000" fill="#6B7280" font-size="12">卡片 + 底部表单</text>
    <path d="M306 358C392 450 404 760 320 918" stroke="#93C5FD" stroke-width="3" stroke-dasharray="8 8" fill="none"/><polygon points="320,918 316,902 331,908" fill="#93C5FD"/>

    <rect x="64" y="1064" width="302" height="112" rx="22" fill="#FFF7F7" stroke="#FECACA"/>
    <text x="154" y="1100" fill="#991B1B" font-size="18" font-weight="700">自动释放 / 权限禁用</text>
    <text x="88" y="1128" fill="#7F1D1D" font-size="12">开始后 15 分钟无人签到 → 释放剩余时段</text>
    <text x="88" y="1148" fill="#7F1D1D" font-size="12">自然月 3 次违规 → 禁用 7 天；仍可签到与查看</text>
    <path d="M110 1022C122 1050 150 1060 215 1064" stroke="#991B1B" stroke-width="3" fill="none"/><polygon points="215,1064 200,1056 201,1072" fill="#991B1B"/>
  </g>

  <rect x="0" y="1238" width="430" height="82" fill="#FFFFFF" stroke="#E5E7EB"/>
  <text x="42" y="1284" fill="#2563EB" font-size="12" font-family="Arial, sans-serif" font-weight="700">首页</text>
  <text x="120" y="1284" fill="#64748B" font-size="12" font-family="Arial, sans-serif" font-weight="700">预约</text>
  <text x="196" y="1284" fill="#64748B" font-size="12" font-family="Arial, sans-serif" font-weight="700">我的预约</text>
  <text x="300" y="1284" fill="#64748B" font-size="12" font-family="Arial, sans-serif" font-weight="700">核销</text>
  <text x="370" y="1284" fill="#64748B" font-size="12" font-family="Arial, sans-serif" font-weight="700">通知</text>
</svg>
